<svg width="512" height="256" viewBox="0 0 512 256" fill="none" xmlns="http://www.w3.org/2000/svg">
  <rect width="512" height="256" rx="32" fill="#FFF8E1"/>
  <rect x="78" y="172" width="220" height="24" rx="12" fill="#CBD5E1"/>
  <ellipse cx="132" cy="196" rx="26" ry="22" fill="#334155"/>
  <ellipse cx="132" cy="196" rx="11" ry="9" fill="#94A3B8"/>
  <ellipse cx="244" cy="196" rx="26" ry="22" fill="#334155"/>
  <ellipse cx="244" cy="196" rx="11" ry="9" fill="#94A3B8"/>
  <path d="M102 172H272V162C272 152 264 144 254 144H112C106 144 102 148 102 154V172Z" fill="#14B8A6" stroke="#334155" stroke-width="6"/>
  <rect x="146" y="116" width="62" height="34" rx="8" fill="#FACC15" stroke="#334155" stroke-width="6"/>
  <path d="M208 132H236L272 106" stroke="#334155" stroke-width="8" stroke-linecap="round"/>
  <path d="M272 106L314 116L296 136L260 126" fill="#14B8A6" stroke="#334155" stroke-width="6" stroke-linejoin="round"/>
  <rect x="274" y="164" width="36" height="16" rx="4" fill="#94A3B8" stroke="#334155" stroke-width="4"/>
  <path d="M336 132C362 132 380 150 380 176" stroke="#22C55E" stroke-width="10" stroke-linecap="round"/>
  <path d="M380 176H432" stroke="#22C55E" stroke-width="10" stroke-linecap="round"/>
  <circle cx="436" cy="176" r="16" fill="#F0FDF4" stroke="#16A34A" stroke-width="6"/>
  <path d="M432 176L436 180L442 172" stroke="#16A34A" stroke-width="4" stroke-linecap="round" stroke-linejoin="round"/>
</svg>
