<svg width="512" height="256" viewBox="0 0 512 256" fill="none" xmlns="http://www.w3.org/2000/svg">
  <rect width="512" height="256" rx="32" fill="#F8FAFC"/>
  <rect x="70" y="170" width="280" height="24" rx="12" fill="#E2E8F0"/>
  <rect x="132" y="122" width="138" height="44" rx="14" fill="#14B8A6" stroke="#334155" stroke-width="6"/>
  <rect x="218" y="92" width="54" height="34" rx="8" fill="#FACC15" stroke="#334155" stroke-width="6"/>
  <ellipse cx="170" cy="194" rx="24" ry="20" fill="#334155"/>
  <ellipse cx="170" cy="194" rx="10" ry="8" fill="#CBD5E1"/>
  <ellipse cx="282" cy="194" rx="24" ry="20" fill="#334155"/>
  <ellipse cx="282" cy="194" rx="10" ry="8" fill="#CBD5E1"/>
  <path d="M270 126H304L344 94" stroke="#334155" stroke-width="8" stroke-linecap="round"/>
  <path d="M344 94L388 104L370 124L334 114" fill="#14B8A6" stroke="#334155" stroke-width="6" stroke-linejoin="round"/>
  <rect x="388" y="154" width="56" height="22" rx="6" fill="#94A3B8" stroke="#334155" stroke-width="6"/>
  <path d="M402 165H430" stroke="#334155" stroke-width="6" stroke-linecap="round"/>
  <path d="M118 84H188V56" stroke="#22C55E" stroke-width="10" stroke-linecap="round"/>
  <path d="M188 56L172 72" stroke="#22C55E" stroke-width="10" stroke-linecap="round"/>
  <path d="M188 56L204 72" stroke="#22C55E" stroke-width="10" stroke-linecap="round"/>
</svg>
