<svg width="512" height="256" viewBox="0 0 512 256" fill="none" xmlns="http://www.w3.org/2000/svg">
  <rect width="512" height="256" rx="32" fill="#FFF8E1"/>
  <rect x="54" y="168" width="404" height="28" rx="14" fill="#CBD5E1"/>
  <rect x="74" y="74" width="88" height="94" rx="12" fill="#E2E8F0"/>
  <rect x="172" y="52" width="100" height="116" rx="12" fill="#F1F5F9"/>
  <rect x="286" y="88" width="64" height="80" rx="12" fill="#E2E8F0"/>
  <rect x="362" y="64" width="76" height="104" rx="12" fill="#F1F5F9"/>
  <path d="M122 144L220 100L316 144" stroke="#F4B400" stroke-width="10" stroke-linecap="round" stroke-linejoin="round"/>
  <circle cx="220" cy="116" r="16" fill="#F8D26A" stroke="#0F172A" stroke-width="6"/>
  <path d="M198 196C200 168 208 148 220 148C232 148 240 168 242 196" fill="#A3E635"/>
  <path d="M198 196C200 168 208 148 220 148C232 148 240 168 242 196" stroke="#334155" stroke-width="6"/>
</svg>
